<?xml version="1.0" encoding="UTF-8"?>
<svg xmlns="http://www.w3.org/2000/svg" width="32" height="32" viewBox="0 0 32 32" fill="none">
  <path d="M28.1194 9.30653C26.9861 8.0532 25.0927 7.42653 22.3461 7.42653H22.0261V7.3732C22.0261 5.1332 22.0261 2.35986 17.0127 2.35986H14.9861C9.97273 2.35986 9.97273 5.14653 9.97273 7.3732V7.43986H9.65273C6.89273 7.43986 5.01273 8.06653 3.8794 9.31986C2.5594 10.7865 2.5994 12.7599 2.73273 14.1065L2.74607 14.1999L2.85685 15.3631C2.87112 15.5129 2.95196 15.6483 3.07772 15.7309C3.3847 15.9325 3.97535 16.3154 4.3194 16.5065C4.50607 16.6265 4.70607 16.7332 4.90607 16.8399C7.18607 18.0932 9.69273 18.9332 12.2394 19.3465C12.3594 20.5999 12.9061 22.0665 15.8261 22.0665C18.7461 22.0665 19.3194 20.6132 19.4127 19.3199C22.1327 18.8799 24.7594 17.9332 27.1327 16.5465C27.2127 16.5065 27.2661 16.4665 27.3327 16.4265C27.8826 16.1157 28.4538 15.73 28.9697 15.3556C29.0825 15.2738 29.1548 15.1478 29.1702 15.0093L29.1994 14.7465L29.2661 14.1199C29.2794 14.0399 29.2794 13.9732 29.2927 13.8799C29.3994 12.5332 29.3727 10.6932 28.1194 9.30653ZM17.4527 18.4399C17.4527 19.8532 17.4527 20.0665 15.8127 20.0665C14.1727 20.0665 14.1727 19.8132 14.1727 18.4532V16.7732H17.4527V18.4399ZM11.8794 7.42653V7.3732C11.8794 5.10653 11.8794 4.26653 14.9861 4.26653H17.0127C20.1194 4.26653 20.1194 5.11986 20.1194 7.3732V7.43986H11.8794V7.42653Z" fill="#E9A900"></path>
  <path d="M28.1019 18.1823C28.455 18.0128 28.8601 18.2937 28.8247 18.6837L28.3191 24.2531C28.0391 26.9198 26.9458 29.6398 21.0791 29.6398H10.9191C5.05247 29.6398 3.95914 26.9198 3.67914 24.2665L3.19843 18.9786C3.16339 18.5932 3.56007 18.313 3.9122 18.4737C5.36984 19.1388 8.49273 20.5167 10.3216 20.9777C10.4863 21.0192 10.6203 21.1369 10.6892 21.2922C11.4809 23.0762 13.2513 24.0265 15.8258 24.0265C18.3748 24.0265 20.1685 23.0397 20.9623 21.2524C21.0313 21.097 21.1658 20.9793 21.3306 20.9376C23.2702 20.4472 26.583 18.9114 28.1019 18.1823Z" fill="#E9A900"></path>
</svg>
