<svg height="511.99999pt" viewBox="1 1 511.99999 511.99999" width="511.99999pt" xmlns="http://www.w3.org/2000/svg"><path d="m469.332031 0h-426.664062c-23.554688.0273438-42.6406252 19.113281-42.667969 42.667969v426.664062c.0273438 23.554688 19.113281 42.640625 42.667969 42.667969h426.664062c23.554688-.027344 42.640625-19.113281 42.667969-42.667969v-426.664062c-.027344-23.554688-19.113281-42.6406252-42.667969-42.667969zm-426.664062 17.066406h426.664062c14.140625 0 25.601563 11.460938 25.601563 25.601563v25.597656h-477.867188v-25.597656c0-14.140625 11.460938-25.601563 25.601563-25.601563zm426.664062 477.867188h-426.664062c-14.140625 0-25.601563-11.460938-25.601563-25.601563v-384h477.867188v384c0 14.140625-11.460938 25.601563-25.601563 25.601563zm0 0"/><path d="m42.667969 34.132812h17.066406v17.066407h-17.066406zm0 0"/><path d="m76.800781 34.132812h17.066407v17.066407h-17.066407zm0 0"/><path d="m110.933594 34.132812h17.066406v17.066407h-17.066406zm0 0"/><path d="m256 119.464844c-94.257812 0-170.667969 76.410156-170.667969 170.667968 0 94.257813 76.410157 170.667969 170.667969 170.667969s170.667969-76.410156 170.667969-170.667969c-.109375-94.210937-76.457031-170.558593-170.667969-170.667968zm0 324.269531c-81.429688-.132813-148.617188-63.765625-153.164062-145.066406h33.699218v-17.066407h-33.699218c1.132812-21.132812 6.652343-41.792968 16.210937-60.671874l29.210937 16.859374 8.535157-14.777343-29.238281-16.878907c11.613281-17.699218 26.738281-32.820312 44.433593-44.433593l16.878907 29.234375 14.78125-8.53125-16.855469-29.210938c18.878906-9.558594 39.542969-15.082031 60.671875-16.214844v33.691407h17.066406v-33.699219c21.132812 1.132812 41.792969 6.652344 60.671875 16.214844l-16.859375 29.207031 14.777344 8.535156 16.878906-29.234375c17.699219 11.609375 32.820312 26.734375 44.433594 44.429688l-29.234375 16.878906 8.53125 14.78125 29.210937-16.863281c9.558594 18.878906 15.082032 39.542969 16.214844 60.671875h-33.691406v17.070312h33.699218c-4.542968 81.304688-71.730468 144.941406-153.164062 145.074219zm0 0"/><path d="m309.699219 224.367188-42.726563 42.726562c-3.417968-1.667969-7.167968-2.542969-10.972656-2.5625-14.257812-.117188-25.910156 11.339844-26.03125 25.59375-.121094 14.257812 11.335938 25.910156 25.59375 26.03125 14.253906.121094 25.910156-11.335938 26.03125-25.589844.03125-3.949218-.839844-7.855468-2.554688-11.414062l42.71875-42.71875zm-53.699219 74.300781c-4.714844 0-8.53125-3.820313-8.53125-8.535157 0-4.710937 3.820312-8.53125 8.53125-8.53125 2.300781-.007812 4.5.9375 6.074219 2.609376 1.59375 1.558593 2.480469 3.695312 2.457031 5.921874 0 4.714844-3.816406 8.535157-8.53125 8.535157zm0 0"/><path d="m230.398438 349.867188h51.203124v17.066406h-51.203124zm0 0"/></svg>